<svg xmlns="http://www.w3.org/2000/svg" viewBox="0 0 131.261 93.592"><defs><style>.f444629d-53ec-4c90-9691-52d3531ac709{fill:none;stroke:#231f20;stroke-miterlimit:10;stroke-width:3px;}</style></defs><title>balance</title><g id="ab37741b-5266-4a3e-83fc-79730dd9d7bb" data-name="Layer 2"><g id="b2d533c4-ecee-405e-9444-bfd77bbb2f76" data-name="Layer 1"><path class="f444629d-53ec-4c90-9691-52d3531ac709" d="M16.756,92.092l39.814-.258A56.233,56.233,0,0,1,2,28.089c16.786-2.248,33.39,3.066,46.29,15.966S62.016,70.088,62.016,86.862A49.442,49.442,0,0,1,42.108,46.616c0-17.474,9.69-34.449,23.149-44.729,13.459,10.28,23.149,26.486,23.149,44.729S81.957,76.583,68.5,86.862c0,0,.252-27.452,14.473-42.807,11.589-12.514,29.5-18.214,46.289-15.966a56.153,56.153,0,0,1-15.966,47.289C102.1,86.573,89.6,92.056,74.93,91.84l40.2.252"/></g></g></svg>