<svg xmlns="http://www.w3.org/2000/svg" viewBox="0 0 114.279 121.068"><defs><style>.a47ef1eb-d641-46a8-9fa2-553308ccabc4{fill:none;stroke:#231f20;stroke-miterlimit:10;stroke-width:3px;}</style></defs><title>charity</title><g id="b4ce01b3-086d-4413-aeff-25358b19627b" data-name="Layer 2"><g id="eb2d83ec-a673-4bdd-a142-eaf853de7ab8" data-name="Layer 1"><path class="a47ef1eb-d641-46a8-9fa2-553308ccabc4" d="M0,119.563l27.383,0h6.1v-9.756c-16.739-6.1-16.71-18.872-16.71-18.872l0-38.425h5.24c10.317,0,8.317,24.774,8.317,24.774,10.413,0,20.541,5.753,25.145,22.838,0,0,25.08-15.956,25.08-27.467,0-7.99-4.559-14.468-12.549-14.468-6.776,0-9.888,4.678-12.531,7.536-2.643-2.858-5.439-7.536-12.532-7.536-3.955,0-6.07,1.588-8.207,4.16,0,0-1.48-11.164-9.973-14.247V9.436A9.2,9.2,0,0,1,31,6.5c3.67,0,6.708,2.933,6.708,2.933l0,41.433h5.206V4.436A9.2,9.2,0,0,1,49.152,1.5c3.671,0,6.708,2.933,6.708,2.933l0,46.433h5.206V7.436A9.2,9.2,0,0,1,67.309,4.5c3.67,0,6.708,2.933,6.708,2.933l0,43.433H79.4V18.436a9.2,9.2,0,0,1,6.24-2.936c3.671,0,6.708,2.933,6.708,2.933l-.738,76.3c0,9.64-10.542,15.085-10.542,15.085v9.753h33.214"/></g></g></svg>