<svg xmlns="http://www.w3.org/2000/svg" viewBox="0 0 48.031 50.072"><defs><style>.b0212a9f-683c-4818-a8f4-85ed2d674a2f{fill:none;stroke:#231f20;stroke-miterlimit:10;}</style></defs><g id="e6be5aaa-9269-4591-b558-9ddc86118a6b" data-name="Layer 2"><g id="adc0ecbd-f18a-470c-9190-3077d9f4774f" data-name="Layer 1"><path class="b0212a9f-683c-4818-a8f4-85ed2d674a2f" d="M688.588,765.525H670.649v-7.033h2.394c1.048,0,4.04,0,4.04-5.089v-4.189h3.74v-3.368c0-2.043-.284-9.4-.946-11.018H666.159l3.817-6.8h-5.089l-1.828,4.469h-8.471a3.766,3.766,0,0,1-.134-7.53,5.43,5.43,0,0,1,8.478-3.051c1.121-2.272,3.876-5.436,7.866-5.436,5.388-.4,7.93,3.914,8.6,7,.124-.011.249-.02.376-.02a4.416,4.416,0,0,1,4.415,4.416,4.594,4.594,0,0,1-4.415,4.618h-8.53L661.9,745.835l2.244-8.156H661l1.158-2.852h-7.966v15.432c0,5.388,2.693,6.585,2.693,10.776v4.489H640.557" transform="translate(-640.557 -715.954)"/></g></g></svg>