<svg xmlns="http://www.w3.org/2000/svg" viewBox="0 0 159.733 93.208">
  <defs>
    <style>.bf5cad1f-3c3d-4ffc-9719-dfc13f81cc31{fill:none;stroke:#231f20;stroke-miterlimit:10;stroke-width:3px;}</style>
  </defs>
  <path class="bf5cad1f-3c3d-4ffc-9719-dfc13f81cc31" d="M159.733,91.708H94.313s29.9-15.667,48.411-8V12.171l-6.188-6.349V74.649c-22.649-3.993-47.571,11.1-47.571,11.1s15.307-20.16,40.9-20.831V2.8c-5.536-1.18-11.56-.348-17.4,1.494V39.835l-5.511-2.563-5.511,6.972V8.91A83.505,83.505,0,0,0,82.784,22.242V79.548l-2.917,6.493-3.193-6.493v-57.3S45.867-1.526,29.866,1.824v63.1c25.6.671,39.711,20.831,39.711,20.831S45.829,71.05,23.2,74.649V5.822l-6.188,6.349V83.706c18.507-7.665,48.411,8,48.411,8H0"/>
</svg>