<svg xmlns="http://www.w3.org/2000/svg" viewBox="0 0 245.787 245.787"><defs><style>.a7689f29-4699-405f-b238-e870477815cf{fill:#f47b29;}</style></defs><title>logo-square</title><g id="b6d53c2f-92ad-4bd8-bd26-827ae07551ec" data-name="Layer 2"><g id="a1c68761-3942-49cd-85b4-83f2740efe14" data-name="Layer 1"><g id="a0b71050-3d1c-4415-a943-63a0e28ccfb8" data-name="Square"><path class="a7689f29-4699-405f-b238-e870477815cf" d="M31.581,89.369H46.232v24.542h.193A15.79,15.79,0,0,1,52.209,109a16.743,16.743,0,0,1,7.614-1.831c9.35,0,16.482,6.457,16.482,20.723v27.471H61.655V129.429c0-6.168-2.121-10.411-7.615-10.411a7.746,7.746,0,0,0-7.326,5.206,8.5,8.5,0,0,0-.482,3.181v27.953H31.581Z"/><path class="a7689f29-4699-405f-b238-e870477815cf" d="M119.358,154.2c-2.6,1.254-7.518,2.217-13.108,2.217-15.23,0-24.966-9.35-24.966-24.193,0-13.784,9.447-25.061,26.99-25.061A33.976,33.976,0,0,1,119.454,109l-2.312,10.892a20.034,20.034,0,0,0-8.194-1.446c-7.71,0-12.723,5.494-12.626,13.2,0,8.675,5.782,13.3,12.915,13.3a20.655,20.655,0,0,0,8.386-1.542Z"/><path class="a7689f29-4699-405f-b238-e870477815cf" d="M139.655,128.177h.192a63.492,63.492,0,0,1,3.374-5.688l9.544-14.265H170.4l-16.868,19.084,19.277,28.05H154.788l-11.469-19.375-3.664,4.724v14.651H125V89.369h14.651Z"/><path class="a7689f29-4699-405f-b238-e870477815cf" d="M175.574,155.414v-8.56l6.936-6.265c11.5-10.256,16.814-16.091,16.823-21.625h0a6.625,6.625,0,0,0-1.758-4.831h0c-1.189-1.187-3.071-1.973-5.935-1.979h0c-4.215-.007-8.009,2.132-10.672,4.095h0l-.852.626-4.071-10.22.49-.375a29.412,29.412,0,0,1,17.513-5.548h0c6.092,0,10.893,1.777,14.163,4.857h0a16.492,16.492,0,0,1,4.952,12.333h0c-.021,9.18-6.518,16.314-14.18,23.1h0l-3.277,2.731h18.5v11.663Z"/><path class="a7689f29-4699-405f-b238-e870477815cf" d="M245.787,245.787H0V0H245.787ZM12.358,233.429H233.429V12.358H12.358Z"/></g></g></g></svg>