<svg xmlns="http://www.w3.org/2000/svg" viewBox="0 0 46.891 50.959"><defs><style>.b8c6c18f-2c6d-4217-a998-8ea87a7022db{fill:none;stroke:#231f20;stroke-miterlimit:10;}</style></defs><title>marketingStrategy</title><g id="a7b958b2-942a-434d-91c5-17e0cf53a2a2" data-name="Layer 2"><g id="eab58ced-b22c-4259-8ea9-cca5211b80aa" data-name="Layer 1"><path class="b8c6c18f-2c6d-4217-a998-8ea87a7022db" d="M728.1,705.37h-15.56V698.5h2.341c1.024,0,3.949,0,3.949-4.974v-4.1h3.658V675.414a13.021,13.021,0,0,0-20.5-10.653l-3.112-2.746V660.87l-4.751-4.752v3.96h-3.565l3.986,3.986,3.5-.077,9.85,9.88a3.447,3.447,0,0,0-.308,1.547,1.921,1.921,0,0,0,1.885,1.885,1.885,1.885,0,0,0,1.885-1.885,2.594,2.594,0,0,0-.852-1.814l-2.557-2.557a4.03,4.03,0,0,1,1.524-.3,4.669,4.669,0,1,1-4.668,4.668,5.443,5.443,0,0,1,.187-1.441l-2.138-2.033a5.928,5.928,0,0,0-.833,3.474,7.452,7.452,0,1,0,7.452-7.451,6.456,6.456,0,0,0-3.451.888l-1.98-2.112a9.383,9.383,0,0,1,5.431-1.56,10.23,10.23,0,1,1-8.632,4.732l-1.991-1.992a13.948,13.948,0,0,0-2.4,7.5v15.035c0,5.266,2.633,6.437,2.633,10.532v4.389H681.207" transform="translate(-681.207 -654.911)"/></g></g></svg>