<svg xmlns="http://www.w3.org/2000/svg" viewBox="0 0 61.485 50.005"><defs><style>.addd0c85-f53c-4a0e-bac2-41f51a69b12c{fill:none;stroke:#231f20;stroke-miterlimit:10;}</style></defs><title>pr</title><g id="e5247398-02c9-4d29-98d1-feb38cceb135" data-name="Layer 2"><g id="e4246a26-a46a-44b1-bb19-4b13e2f3dfb6" data-name="Layer 1"><path class="addd0c85-f53c-4a0e-bac2-41f51a69b12c" d="M858.755,703.807H834.8v-4.389c0-4.1,2.634-5.265,2.634-10.532v-5.558a18.42,18.42,0,0,1-7.545-1.456c-1.159,2.918-4.817,3.577-4.817,3.577a11.03,11.03,0,0,0,1.511-5.675,13.537,13.537,0,0,1-4.363-10.49c0-7.168,5.851-14.482,14.189-14.482a12.873,12.873,0,1,1,0,25.746,11.087,11.087,0,0,1-11.19-11.191c0-5.632,2.266-7.533,2.266-7.533-12.287,0-16.09,10.385-16.09,17.773v3.291h3.657v4.828h6.29c0,4.827-6.29,4.242-6.29,4.242,0,4.584,2.926,4.974,3.949,4.974h2.341v6.875H797.27" transform="translate(-797.27 -654.302)"/></g></g></svg>