<svg xmlns="http://www.w3.org/2000/svg" viewBox="0 0 67.77 112.068">
  <defs>
    <style>.ed0d44aa-9935-4070-bd75-a2ea1bd047fe{fill:none;stroke:#231f20;stroke-miterlimit:10;stroke-width:3px;}</style>
  </defs>
  <path class="ed0d44aa-9935-4070-bd75-a2ea1bd047fe" d="M9.433,110.568H28.005V100.553H13.716c-5.241,0-12.216.094-12.216-10.2l0-24.845V40.826S4.879,38.18,8.19,38.18s6.8,2.649,6.8,2.649v24.68S12,68.158,8.686,68.158a8.433,8.433,0,0,1-2.458-.7v4.825a6.362,6.362,0,0,0,2.455.619,16.5,16.5,0,0,0,8.52-2.789,16.8,16.8,0,0,0,8.573,2.789,6.508,6.508,0,0,0,1.81-.21,11.409,11.409,0,0,1-1.454-4.539c-.342.054,0,0-.352,0-3.311,0-6.282-2.646-6.282-2.646V40.826s2.971-2.646,6.282-2.646,6.3,2.649,6.3,2.649v12.49l4.511,0v-12.5s2.971-2.646,6.282-2.646,6.3,2.649,6.3,2.649v12.49h4.51V4.146S56.655,1.5,59.966,1.5s6.3,2.649,6.3,2.649v54.1H29.35V62.2c0,11.322,9.694,14.9,15.276,14.9h3.133a11.759,11.759,0,0,0,11.092,7.3V79.457c-6.853,0-8.41-7.479-8.41-7.479H45.226s-10.553.7-10.553-8.877h31.6l0,28.158c0,9.388-6.975,9.294-12.217,9.294H40.664v10.015H56.039"/>
</svg>