<svg xmlns="http://www.w3.org/2000/svg" viewBox="0 0 48.815 42.983"><defs><style>.af0537fb-0a3c-4b72-ba2e-338b6cbc3462{fill:none;stroke:#231f20;stroke-miterlimit:10;}</style></defs><title>social</title><g id="a506cedd-c6df-4941-bdc6-bf4688016972" data-name="Layer 2"><g id="bb7c5f65-de18-4e31-b9b8-5e48f32f8f45" data-name="Layer 1"><path class="af0537fb-0a3c-4b72-ba2e-338b6cbc3462" d="M789.643,705.37H772.058V698.5H774.4c1.023,0,3.949,0,3.949-4.974v-4.095h3.656v-5.633a7.024,7.024,0,0,0-5.759-3.457c-3.225,0-4.055,2.175-4.055,2.175s1.088,2.135,4.4,2.135c4.535,0,5.1-5.518,5.1-5.518-.246-7.406-4.009-15.741-15.782-15.741a7.447,7.447,0,0,0-7.612,5.632s7.155-.165,7.674,4.858c.344,3.324.316,6.653-2.534,6.991a5.644,5.644,0,0,1-2.958-1s-1.4,3.1-4.434,2.46c-2.483-.521-2.228-4.532-1.482-6.75s1.916-3.108,3.977-3.108a5.069,5.069,0,0,1,3.115.882l-1.176,6.516s.031,2.952,2.429,3.249c5.32.659,6.32-5.605,5.537-9.708-1-5.21-5.5-6.848-9.851-6.848a10.154,10.154,0,1,0,2.618,19.967s.324.8-2.21,1.783a13.316,13.316,0,0,1-3.04.775v1.366c0,5.267,2.632,6.437,2.632,10.533v4.388H740.828" transform="translate(-740.828 -662.887)"/></g></g></svg>