<svg xmlns="http://www.w3.org/2000/svg" viewBox="0 0 68.617 37.338"><defs><style>.ef9264d6-c6f8-4058-b0e8-8615c8b48e8c{fill:none;stroke:#231f20;stroke-miterlimit:10;}</style></defs><title>web</title><g id="fef1cc20-456c-4b2c-98d1-66603b2f548c" data-name="Layer 2"><g id="a0339cd4-2b2f-4722-9f06-b90381008238" data-name="Layer 1"><path class="ef9264d6-c6f8-4058-b0e8-8615c8b48e8c" d="M557.835,765.525H534.257c0-2.312,2.137-5.79,3.531-5.79l4.792-.023V732.064H504.565v27.648h19.066c-1.4-2.2-4.2-5.583-8.256-5.583,0,0-.174-2.529,2.006-2.529a18.949,18.949,0,0,1,5.233,1.134V736.862a2.187,2.187,0,0,1,1.483-.7,3.43,3.43,0,0,1,1.831.872v8.983h5.232a11.244,11.244,0,0,1,4.884,1.134l-.174,12.471,2.006,2.964h9.673a1.839,1.839,0,0,0,1.839-1.837V731.026a1.839,1.839,0,0,0-1.839-1.839H499.6a1.839,1.839,0,0,0-1.839,1.839v29.725a1.838,1.838,0,0,0,1.839,1.837h24.627a11.17,11.17,0,0,1,.453,2.936h-35.46" transform="translate(-489.218 -728.687)"/></g></g></svg>